<svg width="160" height="160" viewBox="0 0 160 160" role="img" xmlns="http://www.w3.org/2000/svg">
  <title>Midnight icon</title>
  <g transform="translate(80,75)">
    <circle cx="-4" cy="0" r="22" style="fill:rgb(250,249,245);stroke:none;"/>
    <path d="M 22,-26 L 24,-20 L 30,-18 L 24,-16 L 22,-10 L 20,-16 L 14,-18 L 20,-20 Z" style="fill:rgb(250,249,245);stroke:none;"/>
    <path d="M 32,8 L 33.5,12 L 38,13.5 L 33.5,15 L 32,19 L 30.5,15 L 26,13.5 L 30.5,12 Z" style="fill:rgb(250,249,245);stroke:none;"/>
    <path d="M -30,-10 L -29,-7 L -26,-6 L -29,-5 L -30,-2 L -31,-5 L -34,-6 L -31,-7 Z" style="fill:rgb(250,249,245);stroke:none;"/>
    <path d="M -28,16 L -27,19 L -24,20 L -27,21 L -28,24 L -29,21 L -32,20 L -29,19 Z" style="fill:rgb(250,249,245);stroke:none;"/>
    <circle cx="16" cy="26" r="2" style="fill:rgb(194,192,182);stroke:none;"/>
    <circle cx="-30" cy="-24" r="1.5" style="fill:rgb(194,192,182);stroke:none;"/>
    <circle cx="36" cy="-4" r="1.5" style="fill:rgb(194,192,182);stroke:none;"/>
    <circle cx="-8" cy="-36" r="1.5" style="fill:rgb(194,192,182);stroke:none;"/>
    <circle cx="28" cy="30" r="1" style="fill:rgb(194,192,182);stroke:none;"/>
  </g>
  <text x="80" y="128" style="fill:rgb(194,192,182);stroke:none;font-family:'Anthropic Sans',sans-serif;font-size:12px;font-weight:400;text-anchor:middle;">Midnight</text>
</svg>
