<svg width="160" height="160" viewBox="0 0 160 160" role="img" xmlns="http://www.w3.org/2000/svg">
  <title>Night icon</title>
  <g transform="translate(80,75)">
    <path d="M -6,-22 A 23,23 0 1 1 -6,22 A 14,14 0 1 0 -6,-22 Z" style="fill:rgb(250,249,245);stroke:none;"/>
    <path d="M 22,-26 L 24,-20 L 30,-18 L 24,-16 L 22,-10 L 20,-16 L 14,-18 L 20,-20 Z" style="fill:rgb(250,249,245);stroke:none;"/>
    <path d="M 32,8 L 33.5,12 L 38,13.5 L 33.5,15 L 32,19 L 30.5,15 L 26,13.5 L 30.5,12 Z" style="fill:rgb(250,249,245);stroke:none;"/>
    <circle cx="18" cy="26" r="2" style="fill:rgb(194,192,182);stroke:none;"/>
    <circle cx="-28" cy="-20" r="1.5" style="fill:rgb(194,192,182);stroke:none;"/>
  </g>
  <text x="80" y="128" style="fill:rgb(194,192,182);stroke:none;font-family:'Anthropic Sans',sans-serif;font-size:12px;font-weight:400;text-anchor:middle;">Night</text>
</svg>
